<svg xmlns="http://www.w3.org/2000/svg" width="1024" height="1024" viewBox="0 0 1024 1024"><defs><linearGradient id="gradient-0" gradientTransform="rotate(135.00, 0.5, 0.5)"><stop offset="0.0000%" stop-color="#0F0C29"/><stop offset="50.0000%" stop-color="#302B63"/><stop offset="100.0000%" stop-color="#24243E"/></linearGradient><linearGradient id="gradient-1" gradientTransform="rotate(135.00, 0.5, 0.5)"><stop offset="0.0000%" stop-color="#38BDF8"/><stop offset="50.0000%" stop-color="#A855F7"/><stop offset="100.0000%" stop-color="#EC4899"/></linearGradient></defs><rect x="0.00" y="0.00" width="1024.00" height="1024.00" rx="153.60" ry="153.60" fill="url(#gradient-0)" stroke="null" stroke-width="0.00"/><g transform="translate(272.00, 272.00) scale(20.0000, 20.0000)"><g fill="url(#gradient-1)"><path d="M21.174 6.812a1 1 0 0 0-3.986-3.987L3.842 16.174a2 2 0 0 0-.5.83l-1.321 4.352a.5.5 0 0 0 .623.622l4.353-1.32a2 2 0 0 0 .83-.497z"/><path d="m15 5 4 4"/></g></g><g transform="translate(620.00, 220.00) scale(5.8333, 5.8333)"><g fill="#FDE68A"><path d="M11.017 2.814a1 1 0 0 1 1.966 0l1.051 5.558a2 2 0 0 0 1.594 1.594l5.558 1.051a1 1 0 0 1 0 1.966l-5.558 1.051a2 2 0 0 0-1.594 1.594l-1.051 5.558a1 1 0 0 1-1.966 0l-1.051-5.558a2 2 0 0 0-1.594-1.594l-5.558-1.051a1 1 0 0 1 0-1.966l5.558-1.051a2 2 0 0 0 1.594-1.594z"/><path d="M20 2v4"/><path d="M22 4h-4"/><circle cx="4" cy="20" r="2"/></g></g><circle cx="292.00" cy="712.00" r="12.00" fill="#C084FC"/><circle cx="728.00" cy="688.00" r="8.00" fill="#38BDF8"/><circle cx="206.00" cy="326.00" r="6.00" fill="#A78BFA"/><circle cx="789.00" cy="349.00" r="9.00" fill="#67E8F9"/><g transform="translate(160.00, 560.00) scale(3.3333, 3.3333)"><g fill="#C084FC"><path d="M11.017 2.814a1 1 0 0 1 1.966 0l1.051 5.558a2 2 0 0 0 1.594 1.594l5.558 1.051a1 1 0 0 1 0 1.966l-5.558 1.051a2 2 0 0 0-1.594 1.594l-1.051 5.558a1 1 0 0 1-1.966 0l-1.051-5.558a2 2 0 0 0-1.594-1.594l-5.558-1.051a1 1 0 0 1 0-1.966l5.558-1.051a2 2 0 0 0 1.594-1.594z"/><path d="M20 2v4"/><path d="M22 4h-4"/><circle cx="4" cy="20" r="2"/></g></g><g transform="translate(140.00, 180.00) scale(2.5000, 2.5000)"><g fill="#FDE68A"><path d="M11.017 2.814a1 1 0 0 1 1.966 0l1.051 5.558a2 2 0 0 0 1.594 1.594l5.558 1.051a1 1 0 0 1 0 1.966l-5.558 1.051a2 2 0 0 0-1.594 1.594l-1.051 5.558a1 1 0 0 1-1.966 0l-1.051-5.558a2 2 0 0 0-1.594-1.594l-5.558-1.051a1 1 0 0 1 0-1.966l5.558-1.051a2 2 0 0 0 1.594-1.594z"/><path d="M20 2v4"/><path d="M22 4h-4"/><circle cx="4" cy="20" r="2"/></g></g><g transform="translate(780.00, 720.00) scale(2.0833, 2.0833)"><g fill="#F0ABFC"><path d="M11.017 2.814a1 1 0 0 1 1.966 0l1.051 5.558a2 2 0 0 0 1.594 1.594l5.558 1.051a1 1 0 0 1 0 1.966l-5.558 1.051a2 2 0 0 0-1.594 1.594l-1.051 5.558a1 1 0 0 1-1.966 0l-1.051-5.558a2 2 0 0 0-1.594-1.594l-5.558-1.051a1 1 0 0 1 0-1.966l5.558-1.051a2 2 0 0 0 1.594-1.594z"/><path d="M20 2v4"/><path d="M22 4h-4"/><circle cx="4" cy="20" r="2"/></g></g><g transform="translate(800.00, 200.00) scale(1.8333, 1.8333)"><g fill="#67E8F9"><path d="M11.017 2.814a1 1 0 0 1 1.966 0l1.051 5.558a2 2 0 0 0 1.594 1.594l5.558 1.051a1 1 0 0 1 0 1.966l-5.558 1.051a2 2 0 0 0-1.594 1.594l-1.051 5.558a1 1 0 0 1-1.966 0l-1.051-5.558a2 2 0 0 0-1.594-1.594l-5.558-1.051a1 1 0 0 1 0-1.966l5.558-1.051a2 2 0 0 0 1.594-1.594z"/><path d="M20 2v4"/><path d="M22 4h-4"/><circle cx="4" cy="20" r="2"/></g></g><polygon points="180.00,660.00 184.47,673.85 199.02,673.82 187.23,682.35 191.76,696.18 180.00,687.60 168.24,696.18 172.77,682.35 160.98,673.82 175.53,673.85" fill="#F59E0B"/><polygon points="775.00,520.00 778.35,530.39 789.27,530.36 780.42,536.76 783.82,547.14 775.00,540.70 766.18,547.14 769.58,536.76 760.73,530.36 771.65,530.39" fill="#F472B6"/><polygon points="312.00,180.00 314.68,188.31 323.41,188.29 316.34,193.41 319.05,201.71 312.00,196.56 304.95,201.71 307.66,193.41 300.59,188.29 309.32,188.31" fill="#818CF8"/><circle cx="855.00" cy="425.00" r="5.00" fill="#FDE68A"/><circle cx="137.00" cy="457.00" r="7.00" fill="#A78BFA"/><circle cx="704.00" cy="164.00" r="4.00" fill="#F472B6"/><circle cx="456.00" cy="826.00" r="6.00" fill="#38BDF8"/><circle cx="225.00" cy="835.00" r="5.00" fill="#FBBF24"/><circle cx="604.00" cy="804.00" r="4.00" fill="#C084FC"/><circle cx="873.00" cy="583.00" r="3.00" fill="#67E8F9"/><circle cx="124.00" cy="584.00" r="4.00" fill="#F9A8D4"/><circle cx="310.00" cy="720.00" r="20.00" fill="#F43F5E"/><circle cx="276.00" cy="756.00" r="16.00" fill="#F59E0B"/><circle cx="244.00" cy="794.00" r="14.00" fill="#10B981"/><circle cx="332.00" cy="772.00" r="12.00" fill="#3B82F6"/><circle cx="368.00" cy="748.00" r="18.00" fill="#A855F7"/><polygon points="290.00,810.00 330.00,850.00 290.00,890.00 250.00,850.00" fill="#F43F5E"/><polygon points="210.00,840.00 240.00,870.00 210.00,900.00 180.00,870.00" fill="#F59E0B"/><polygon points="365.00,800.00 390.00,825.00 365.00,850.00 340.00,825.00" fill="#10B981"/><polygon points="162.00,820.00 184.00,842.00 162.00,864.00 140.00,842.00" fill="#3B82F6"/><polygon points="327.50,850.00 355.00,877.50 327.50,905.00 300.00,877.50" fill="#EC4899"/></svg>